# xmcd
#
# Track frame offsets:
#	150
#	14897
#	28655
#	45410
#	57930
#	73192
#	85327
#	99910
#	113860
#	128882
#	144917
#	162787
#	181755
#	196865
#	213157
#	226842
#	247197
#	263895
#
# Disc length: 3885 seconds
#
# Revision: 1
# Processed by: cddbd v1.5.2PL0 Copyright (c) Steve Scherf et al.
# Submitted via: audiograbber 1.83.01
#
DISCID=f50f2b12
DTITLE=Various Artist - CDX 48 January 1993
DYEAR=1993
DGENRE=Country
TTITLE0=Alvin and The Chipmunks - Boot Scootin' Boogie
TTITLE1=Cimmaron - Can't You Just Stay Gone
TTITLE2=Holly Dunn - Golden Years
TTITLE3=George Strait - Heartland
TTITLE4=Debra Burns - I'm In Love All Over
TTITLE5=Tanya Tucker - It's A Little Too Late
TTITLE6=Chris LeDoux - Look At You Girl
TTITLE7=Jeff Stevens - Love Lightnin'
TTITLE8=The Remingtons - Nobody Loves You When You're Free
TTITLE9=Radney Foster - Nobody Wins
TTITLE10=Tim Mensy - She Dreams
TTITLE11=Joan Baez - Stones In The Road
TTITLE12=Billy Burnette - Tangled Up In Texas
TTITLE13=Joy White - True Confessions
TTITLE14=Jack Robertson - What's My World Coming To
TTITLE15=Chris LeDoux - Cadillac Ranch (Dance Mix)
TTITLE16=Tanya Tucker - It's A Little Too Late (Dance Mix)
TTITLE17=Confederate Railroad - Queen Of Memphis (Dance Mix)
EXTD=
EXTT0=
EXTT1=
EXTT2=
EXTT3=
EXTT4=
EXTT5=
EXTT6=
EXTT7=
EXTT8=
EXTT9=
EXTT10=
EXTT11=
EXTT12=
EXTT13=
EXTT14=
EXTT15=
EXTT16=
EXTT17=
PLAYORDER=
